<svg width="36" height="36" viewBox="0 0 36 36" fill="none" xmlns="http://www.w3.org/2000/svg">
<g clip-path="url(#clip0_197_67)">
<path d="M35.402 14.2503L35.3513 14.116L30.4512 0.837493C30.3515 0.577242 30.1749 0.356471 29.9469 0.206854C29.7187 0.05978 29.4526 -0.0110558 29.1844 0.00391133C28.9162 0.0188784 28.6589 0.118928 28.4472 0.29055C28.2379 0.4671 28.0861 0.706332 28.0123 0.975689L24.7037 11.4863H11.306L7.99739 0.975689C7.92564 0.704864 7.77345 0.464434 7.56249 0.288603C7.35081 0.116981 7.09351 0.0169316 6.82533 0.00196449C6.55715 -0.0130026 6.291 0.0578332 6.06282 0.204907C5.8353 0.355128 5.65892 0.575707 5.55856 0.835546L0.64902 14.1082L0.60028 14.2425C-0.105121 16.1562 -0.192191 18.2562 0.352197 20.2258C0.896586 22.1954 2.04292 23.9278 3.61836 25.1619L3.63523 25.1755L3.68022 25.2086L11.1448 31.0128L14.8378 33.9149L17.0873 35.6784C17.3504 35.8858 17.6717 35.9981 18.0021 35.9981C18.3324 35.9981 18.6537 35.8858 18.9169 35.6784L21.1664 33.9149L24.8593 31.0128L32.3689 25.1736L32.3876 25.158C33.9595 23.9237 35.1032 22.193 35.6468 20.2261C36.1903 18.2592 36.1044 16.1622 35.402 14.2503Z" fill="url(#paint0_linear_197_67)"/>
</g>
<defs>
<linearGradient id="paint0_linear_197_67" x1="2.42456" y1="4.70226" x2="36.0084" y2="12.0247" gradientUnits="userSpaceOnUse">
<stop stop-color="#EC221F"/>
<stop offset="1" stop-color="#861311"/>
</linearGradient>
<clipPath id="clip0_197_67">
<rect width="36" height="36" fill="white"/>
</clipPath>
</defs>
</svg>
