<svg width="36" height="36" viewBox="0 0 36 36" fill="none" xmlns="http://www.w3.org/2000/svg">
<g clip-path="url(#clip0_267_110)">
<path d="M34.4872 0.555664H1.5129C0.984235 0.555664 0.555664 0.984235 0.555664 1.5129V34.4872C0.555664 35.0158 0.984235 35.4444 1.5129 35.4444H34.4872C35.0158 35.4444 35.4444 35.0158 35.4444 34.4872V1.5129C35.4444 0.984235 35.0158 0.555664 34.4872 0.555664Z" fill="url(#paint0_linear_267_110)" stroke="url(#paint1_linear_267_110)" stroke-width="2" stroke-linecap="round" stroke-linejoin="round"/>
<path d="M6.57399 24.4696H9.08831V31.9217H6.5742V24.4693L6.57399 24.4696ZM7.84636 23.8637C7.42248 23.8637 7.09681 23.7575 6.86946 23.5457C6.64242 23.3336 6.52869 23.051 6.52869 22.6974C6.52869 22.3641 6.64221 22.0812 6.86946 21.8491C7.09681 21.6169 7.42248 21.5007 7.84636 21.5007C8.27055 21.5007 8.59622 21.6169 8.82326 21.8491C9.05061 22.0814 9.16424 22.3641 9.16424 22.6973C9.16424 23.0507 9.05072 23.3334 8.82347 23.5455C8.59643 23.7574 8.27065 23.8635 7.84657 23.8635M12.7529 32.0718C12.026 32.0718 11.4782 31.8774 11.1095 31.4886C10.7408 31.0999 10.5565 30.5571 10.5565 29.8603V26.3314H9.55708V24.4682H10.5566V22.6508H13.071V24.4682H14.7069V26.3314H13.0707V29.4971C13.0707 29.7293 13.1186 29.8934 13.2146 29.9895C13.3107 30.0855 13.4594 30.1332 13.6614 30.1332C13.9341 30.1332 14.2319 30.0122 14.555 29.7697L15.1307 31.4208C14.8381 31.6228 14.5048 31.7819 14.1309 31.8981C13.757 32.0142 13.2977 32.0722 12.7526 32.0722M18.838 32.0722C17.6868 32.0722 16.7805 31.7441 16.1192 31.0876C15.4575 30.4315 15.1269 29.4771 15.1269 28.2251C15.1269 27.3163 15.3137 26.5539 15.6872 25.938C16.071 25.3017 16.5508 24.8726 17.1265 24.6504C17.7321 24.4181 18.2926 24.3021 18.8077 24.3021C19.4537 24.3021 19.9941 24.4309 20.4282 24.6885C20.8625 24.9459 21.183 25.2261 21.3901 25.5289C21.5971 25.8318 21.746 26.0693 21.8369 26.241L20.095 27.3616C19.9336 27.0286 19.7567 26.7659 19.5649 26.5741C19.373 26.3824 19.1407 26.2866 18.8682 26.2866C18.4844 26.2866 18.1815 26.4379 17.9594 26.7407C17.7371 27.0438 17.6261 27.5031 17.6261 28.1192C17.6261 28.7857 17.7573 29.2754 18.0198 29.5885C18.2822 29.9015 18.6561 30.0579 19.1406 30.0579C19.5243 30.0579 19.845 29.9875 20.1026 29.846C20.3599 29.7047 20.6046 29.5231 20.8369 29.3007L21.6398 31.1789C21.3974 31.381 21.0389 31.5804 20.5645 31.7773C20.0896 31.9741 19.5142 32.0725 18.8378 32.0725M22.4277 31.9225V21.8046H24.9571V24.8794C25.1693 24.7278 25.4268 24.594 25.7296 24.478C26.0327 24.3619 26.3961 24.3038 26.8203 24.3038C27.7087 24.3038 28.3729 24.5563 28.8121 25.0612C29.2514 25.5661 29.471 26.278 29.471 27.1969V31.9225H26.9417V27.4997C26.9417 27.0756 26.8609 26.7651 26.6993 26.5682C26.5377 26.3714 26.3254 26.2729 26.063 26.2729C25.8409 26.2729 25.6339 26.3234 25.442 26.4244C25.2504 26.5252 25.0886 26.6312 24.9573 26.7423V31.9225H22.428H22.4277Z" fill="white"/>
<path d="M23.4425 3.95209C23.3355 3.92445 23.2179 3.91898 23.0941 3.93939L11.9128 5.78315C11.4177 5.8648 11.019 6.33063 11.019 6.82766V18.0516C11.019 18.5486 11.4177 18.8829 11.9128 18.8012L11.9954 18.7876C11.9752 18.7158 11.9633 18.6391 11.9633 18.5575V7.33351C11.9633 6.8365 12.3635 6.37068 12.8605 6.28913L23.9595 4.46923C23.8898 4.2083 23.6974 4.01782 23.4434 3.95223L23.4425 3.95209Z" fill="white" fill-opacity="0.23457"/>
<path d="M12.86 6.27626C12.363 6.35776 11.9628 6.82365 11.9628 7.32064V18.5446C11.9628 19.0416 12.363 19.376 12.86 19.2945L24.084 17.4537C24.581 17.3722 24.981 16.9066 24.981 16.4096V5.18566C24.981 4.68865 24.581 4.354 24.084 4.43552L12.86 6.27626ZM16.0324 9.37372L16.0333 9.37359C16.5496 9.28892 16.9168 9.56324 17.0469 10.0458L19.9005 9.57781C20.0304 9.05259 20.3953 8.6582 20.9117 8.57347C21.7318 8.43897 22.6335 9.13325 22.9149 10.1161L23.5873 12.463C23.8689 13.4459 23.4274 14.3605 22.6073 14.4949C21.8873 14.613 21.1048 14.0927 20.7339 13.2988L16.2101 14.0406C15.8394 14.9562 15.0566 15.7332 14.3365 15.8513C13.5162 15.9858 13.0751 15.216 13.3567 14.1408L14.0292 11.5733C14.3107 10.4979 15.2121 9.50808 16.0323 9.37354L16.0324 9.37372ZM17.8066 10.5447V11.4619L17.0702 11.5826L17.7712 12.357L18.4718 13.1314L19.1731 12.1266L19.8741 11.1224L19.1835 11.2357V10.3189L17.8066 10.5447Z" fill="white"/>
</g>
<defs>
<linearGradient id="paint0_linear_267_110" x1="2.90617" y1="5.11302" x2="35.453" y2="12.2088" gradientUnits="userSpaceOnUse">
<stop stop-color="#EC221F"/>
<stop offset="1" stop-color="#861311"/>
</linearGradient>
<linearGradient id="paint1_linear_267_110" x1="2.90617" y1="5.11302" x2="35.453" y2="12.2088" gradientUnits="userSpaceOnUse">
<stop stop-color="#EC221F"/>
<stop offset="1" stop-color="#861311"/>
</linearGradient>
<clipPath id="clip0_267_110">
<rect width="36" height="36" rx="4" fill="white"/>
</clipPath>
</defs>
</svg>
