<svg width="36" height="36" viewBox="0 0 25 23" fill="none" xmlns="http://www.w3.org/2000/svg">
<path d="M22.65 14.0455L12 21.7855L1.35001 14.0455C1.20723 13.9405 1.10133 13.793 1.04744 13.6242C0.993557 13.4553 0.994455 13.2738 1.05001 13.1055L2.27001 9.32546L4.71001 1.81546C4.73367 1.75427 4.77135 1.69947 4.82001 1.65546C4.89925 1.58308 5.00269 1.54295 5.11001 1.54295C5.21733 1.54295 5.32077 1.58308 5.40001 1.65546C5.45139 1.70513 5.48925 1.76708 5.51001 1.83546L7.95001 9.32546H16.05L18.49 1.81546C18.5137 1.75427 18.5513 1.69947 18.6 1.65546C18.6792 1.58308 18.7827 1.54295 18.89 1.54295C18.9973 1.54295 19.1008 1.58308 19.18 1.65546C19.2314 1.70513 19.2693 1.76708 19.29 1.83546L21.73 9.34546L23 13.1055C23.0505 13.2789 23.0438 13.4641 22.9807 13.6334C22.9177 13.8028 22.8017 13.9473 22.65 14.0455Z" stroke="#FF3D00" stroke-width="2" stroke-linecap="round" stroke-linejoin="round"/>
</svg>
